<?xml version="1.0" encoding="utf-8"?>
<!-- Generator: Adobe Illustrator 16.0.0, SVG Export Plug-In . SVG Version: 6.00 Build 0)  -->
<!DOCTYPE svg PUBLIC "-//W3C//DTD SVG 1.1//EN" "http://www.w3.org/Graphics/SVG/1.1/DTD/svg11.dtd">
<svg version="1.1" xmlns="http://www.w3.org/2000/svg" xmlns:xlink="http://www.w3.org/1999/xlink" x="0px" y="0px" width="612px"
	 height="612px" viewBox="0 0 612 612" enable-background="new 0 0 612 612" xml:space="preserve">
<g id="Layer_2">
	<ellipse fill="#FFFFFF" cx="307.353" cy="309.447" rx="250.987" ry="250.486"/>
</g>
<g id="Layer_1">
	<path fill="none" d="M563.936,308.445c0,83.969-0.024,167.938,0.085,251.906c0.005,3.592-0.559,4.693-4.499,4.69
		c-168.104-0.124-336.209-0.123-504.313-0.001c-3.716,0.002-4.298-0.898-4.296-4.395c0.101-168.104,0.099-336.209,0.011-504.313
		c-0.002-3.369,0.398-4.451,4.241-4.447c168.271,0.132,336.542,0.129,504.812,0.015c3.505-0.002,4.054,0.803,4.049,4.139
		C563.911,140.174,563.936,224.31,563.936,308.445z M561.991,309.244C563.164,168.891,448.612,56.502,312.7,53.8
		C166.839,50.9,52.368,168.994,51.869,307.401c-0.517,143.19,115.962,256.177,253.841,256.835
		C447.431,564.913,563.178,449.002,561.991,309.244z"/>
	<path fill-rule="evenodd" clip-rule="evenodd" fill="#4A97D2" d="M561.991,309.244c1.187,139.758-114.561,255.669-256.281,254.992
		C167.831,563.578,51.352,450.592,51.869,307.401C52.368,168.994,166.839,50.9,312.7,53.8
		C448.612,56.502,563.164,168.891,561.991,309.244z M307.344,557.934c139.553-2.86,248.091-109.952,247.996-249.1
		C555.244,169.167,446.416,60.659,307.179,60.548C168.01,60.438,58.644,169.275,58.652,309.069
		C58.66,448.657,167.559,555.421,307.344,557.934z"/>
	<path fill-rule="evenodd" clip-rule="evenodd" fill="none" d="M307.344,557.934C167.559,555.421,58.66,448.657,58.652,309.069
		C58.644,169.275,168.01,60.438,307.179,60.548c139.237,0.11,248.065,108.618,248.161,248.286
		C555.435,447.981,446.896,555.073,307.344,557.934z M307.477,64.892C169.471,68.191,66.819,173.698,63.47,305.495
		c-1.827,71.858,26.667,133.397,79.297,182.484c44.933,41.906,99.618,64.59,160.488,65.146
		c70.705,0.645,132.092-26.104,181.13-78.106c43.021-45.621,63.315-100.953,67.47-162.828
		C548.322,173.489,444.388,68.543,307.477,64.892z"/>
	<path fill-rule="evenodd" clip-rule="evenodd" fill="#4A97D2" d="M307.477,64.892c136.911,3.651,240.846,108.597,244.378,247.298
		c-4.154,61.875-24.449,117.207-67.47,162.828c-49.038,52.002-110.425,78.751-181.13,78.106
		c-60.87-0.556-115.555-23.239-160.488-65.146C90.138,438.893,61.644,377.354,63.47,305.495
		C66.819,173.698,169.471,68.191,307.477,64.892z M299.978,197.259c0.534,0.726,0.847,0.956,0.876,1.216
		c3.535,32.276,9.094,64.273,13.306,96.457c0.739,5.65,2.49,6.769,8.024,5.951c3.188-0.471,3.741-2.978,4.659-5.234
		c13.001-31.939,25.979-63.888,38.95-95.838c2.194-5.403,4.349-10.821,6.473-16.251c0.534-1.364,1.348-2.8-1.071-3.475
		c-4.747-1.325-8.417,0.317-10.278,5.017c-11.102,28.035-22.184,56.077-33.227,84.134c-1.961,4.982-3.708,10.05-5.554,15.078
		c-0.472-0.083-0.943-0.167-1.415-0.25c0-3.79,0.434-7.638-0.068-11.359c-3.89-28.868-7.938-57.714-11.994-86.559
		c-0.824-5.861-1.979-6.504-7.876-6.162c-2.929,0.17-3.978,1.93-4.931,4.163c-13.8,32.311-29.501,63.803-41.73,96.792
		c-0.317,0.857-0.29,2.056-2.057,2.324c-1.04-19.606-3.164-39.059-5.119-58.529c-1.363-13.573-2.756-27.144-4.046-40.725
		c-0.429-4.52-3.673-3.869-6.64-3.989c-3.305-0.133-4.511,1.565-4.235,4.636c0.372,4.142,0.714,8.289,1.165,12.423
		c3.567,32.749,7.157,65.496,10.74,98.243c0.261,2.389-0.359,5.366,3.421,5.527c3.312,0.142,6.515,0.584,8.347-3.551
		c11.667-26.347,23.534-52.605,35.272-78.92C294.046,211.481,296.902,204.486,299.978,197.259z M303.927,418.696
		c-2.18-2.673-2.469-5.023-3.069-7.231c-8.475-31.186-17.075-62.338-25.291-93.591c-1.709-6.503-6.269-4.501-10.25-4.836
		c-4.44-0.375-4.947,2.59-5.422,6.041c-1.704,12.368-3.623,24.707-5.475,37.055c-3.655,24.367-7.288,48.736-11.018,73.093
		c-0.499,3.255,0.522,4.393,3.823,4.75c5.73,0.62,6.037-3.188,6.619-7.098c4.022-27.006,8.017-54.016,12.156-81.004
		c0.724-4.714,0.826-9.606,2.956-15.209c0.816,2.858,1.328,4.597,1.811,6.345c8.469,30.667,16.925,61.339,25.421,92
		c0.601,2.168,0.836,4.681,4.079,4.865c2.972,0.17,4.948-0.73,6.509-3.459c16.465-28.769,33.017-57.487,49.613-86.182
		c1.758-3.041,3.046-6.483,5.95-8.942c0.902,1.45,0.625,2.631,0.455,3.761c-2.103,13.994-4.244,27.982-6.351,41.976
		c-2.405,15.969-4.759,31.945-7.2,47.909c-0.519,3.395,0.588,4.754,4.162,5.033c6.839,0.536,5.783-4.71,6.345-8.399
		c5.286-34.729,10.395-69.483,15.629-104.22c1.194-7.924,0.458-8.679-7.464-8.398c-3.876,0.137-5.01,2.852-6.462,5.378
		c-12.284,21.374-24.508,42.782-36.76,64.174C317.924,394.329,311.133,406.14,303.927,418.696z M430.907,435.943
		c9.435-0.578,18.333-2.167,26.738-6.357c18.572-9.256,23.546-38.946,2.323-50.693c-6.305-3.49-12.743-6.487-19.492-8.938
		c-7.666-2.782-15.509-5.23-22.327-9.898c-10.703-7.325-12-22.108-2.641-31.174c9.078-8.791,20.131-10.429,32.049-8.089
		c12.305,2.416,18.875,9.944,19.419,22.378c0.146,3.354,1.221,4.805,4.705,4.778c3.541-0.028,5.05-1.353,5.25-4.983
		c0.691-12.572-5.516-23.013-17.147-27.834c-14.193-5.883-28.437-5.225-42.178,1.18c-12.15,5.663-18.188,15.854-18.389,29.182
		c-0.172,11.383,5.808,19.103,15.697,24.105c2.375,1.201,4.729,2.448,7.142,3.568c10.408,4.839,21.584,7.723,31.703,13.443
		c13.234,7.48,13.809,26.891-1.564,35.348c-10.396,5.719-21.285,6.43-32.457,3.909c-14.068-3.177-18.465-8.484-19.759-22.884
		c-0.243-2.709-1.312-3.919-3.997-3.921c-2.477-0.001-4.651,0.097-5.1,3.343c-1.293,9.354,0.55,17.558,8.305,23.706
		C408.554,433.539,419.674,435.238,430.907,435.943z M411.586,250.92c7.313-0.155,14.611,0.103,21.93-0.87
		c19.555-2.601,32.48-14.956,35.46-34.401c2.825-18.439-6.782-31.944-25.151-34.61c-15.72-2.281-31.585-0.597-47.382-0.948
		c-3.664-0.082-4.063,2.55-4.478,5.372c-2.871,19.591-5.821,39.17-8.75,58.753c-2.585,17.28-5.11,34.568-7.809,51.831
		c-0.557,3.56,0.588,4.733,4.104,4.95c4.163,0.257,5.539-1.743,6.062-5.414c1.878-13.178,3.98-26.325,5.807-39.51
		c0.539-3.892,2.274-5.442,6.221-5.223C402.25,251.108,406.923,250.91,411.586,250.92z M136.03,390.448
		c-0.018,21.951,8.344,36.311,23.051,42.509c8.259,3.479,16.825,3.196,25.54,1.93c18.846-2.739,33-15.158,37.138-32.97
		c1.257-5.415,0.157-6.466-5.387-5.892c-3.81,0.394-3.651,3.395-4.303,5.805c-6.287,23.251-31.85,28.971-47.746,23.557
		c-12.901-4.394-17.139-15.39-18.306-27.887c-0.735-7.878,0.993-15.596,2.131-23.318c1.503-10.198,2.837-20.454,7.628-29.859
		c9.466-18.583,25.946-27.246,45.031-23.497c13.471,2.646,20.773,11.927,19.864,25.619c-0.189,2.856,0.075,4.541,3.405,4.478
		c2.937-0.057,5.53,0.157,5.97-4.062c1.714-16.468-6.561-28.902-22.645-33.539c-22.659-6.532-45.557,2.411-57.866,22.579
		C138.679,353.688,138.811,374.037,136.03,390.448z M178.97,300.929c10.319,0,20.638,0.018,30.958-0.016
		c1.955-0.007,4.05,0.262,5.29-1.921c1.976-3.48,0.173-6.064-4.512-6.081c-16.478-0.059-32.955-0.022-49.433-0.035
		c-7.141-0.005-7.252-0.036-6.201-7.274c2.054-14.154,4.26-28.285,6.375-42.43c2.904-19.406,5.797-38.814,8.649-58.229
		c0.245-1.669,1.296-3.652-1.233-4.708c-4.184-1.747-8.169,0.379-8.823,4.777c-5.458,36.68-10.839,73.372-16.463,110.026
		c-0.696,4.536,0.401,6.041,4.936,5.956C158.662,300.805,168.817,300.936,178.97,300.929z"/>
	<path fill-rule="evenodd" clip-rule="evenodd" fill="none" d="M299.978,197.259c-3.076,7.227-5.932,14.223-9.008,21.12
		c-11.739,26.315-23.605,52.573-35.272,78.92c-1.832,4.135-5.034,3.692-8.347,3.551c-3.78-0.161-3.16-3.138-3.421-5.527
		c-3.583-32.747-7.173-65.494-10.74-98.243c-0.45-4.134-0.792-8.281-1.165-12.423c-0.276-3.071,0.93-4.769,4.235-4.636
		c2.966,0.12,6.21-0.531,6.64,3.989c1.29,13.581,2.683,27.151,4.046,40.725c1.955,19.47,4.079,38.923,5.119,58.529
		c1.768-0.269,1.74-1.467,2.057-2.324c12.229-32.99,27.93-64.481,41.73-96.792c0.953-2.233,2.002-3.993,4.931-4.163
		c5.896-0.342,7.052,0.301,7.876,6.162c4.057,28.845,8.104,57.691,11.994,86.559c0.502,3.722,0.068,7.57,0.068,11.359
		c0.472,0.083,0.943,0.167,1.415,0.25c1.846-5.028,3.593-10.096,5.554-15.078c11.043-28.058,22.125-56.1,33.227-84.134
		c1.861-4.7,5.531-6.342,10.278-5.017c2.419,0.675,1.605,2.111,1.071,3.475c-2.124,5.43-4.278,10.848-6.473,16.251
		c-12.971,31.951-25.949,63.899-38.95,95.838c-0.918,2.256-1.472,4.763-4.659,5.234c-5.534,0.817-7.285-0.301-8.024-5.951
		c-4.212-32.183-9.771-64.18-13.306-96.457C300.825,198.214,300.512,197.984,299.978,197.259z"/>
	<path fill-rule="evenodd" clip-rule="evenodd" fill="none" d="M303.927,418.696c7.206-12.557,13.997-24.367,20.769-36.19
		c12.252-21.392,24.476-42.8,36.76-64.174c1.452-2.526,2.586-5.241,6.462-5.378c7.922-0.28,8.658,0.475,7.464,8.398
		c-5.234,34.736-10.343,69.491-15.629,104.22c-0.562,3.689,0.494,8.936-6.345,8.399c-3.574-0.279-4.681-1.639-4.162-5.033
		c2.441-15.964,4.795-31.94,7.2-47.909c2.106-13.993,4.248-27.981,6.351-41.976c0.17-1.13,0.447-2.311-0.455-3.761
		c-2.904,2.459-4.192,5.901-5.95,8.942c-16.596,28.694-33.147,57.413-49.613,86.182c-1.561,2.729-3.538,3.629-6.509,3.459
		c-3.243-0.185-3.479-2.697-4.079-4.865c-8.497-30.661-16.953-61.333-25.421-92c-0.483-1.748-0.995-3.486-1.811-6.345
		c-2.13,5.603-2.232,10.495-2.956,15.209c-4.14,26.988-8.134,53.998-12.156,81.004c-0.582,3.91-0.889,7.718-6.619,7.098
		c-3.301-0.357-4.322-1.495-3.823-4.75c3.73-24.356,7.363-48.726,11.018-73.093c1.853-12.348,3.771-24.687,5.475-37.055
		c0.476-3.451,0.982-6.416,5.422-6.041c3.981,0.335,8.541-1.667,10.25,4.836c8.215,31.253,16.815,62.405,25.291,93.591
		C301.458,413.673,301.747,416.023,303.927,418.696z"/>
	<path fill-rule="evenodd" clip-rule="evenodd" fill="none" d="M430.907,435.943c-11.233-0.705-22.354-2.404-31.72-9.831
		c-7.755-6.148-9.598-14.353-8.305-23.706c0.448-3.246,2.623-3.344,5.1-3.343c2.686,0.002,3.754,1.212,3.997,3.921
		c1.294,14.399,5.69,19.707,19.759,22.884c11.172,2.521,22.061,1.81,32.457-3.909c15.373-8.457,14.799-27.867,1.564-35.348
		c-10.119-5.721-21.295-8.604-31.703-13.443c-2.413-1.12-4.767-2.367-7.142-3.568c-9.89-5.003-15.869-12.723-15.697-24.105
		c0.201-13.328,6.238-23.519,18.389-29.182c13.741-6.404,27.984-7.062,42.178-1.18c11.632,4.821,17.839,15.262,17.147,27.834
		c-0.2,3.631-1.709,4.955-5.25,4.983c-3.484,0.026-4.559-1.425-4.705-4.778c-0.544-12.434-7.114-19.962-19.419-22.378
		c-11.918-2.34-22.971-0.702-32.049,8.089c-9.359,9.065-8.062,23.849,2.641,31.174c6.818,4.668,14.661,7.116,22.327,9.898
		c6.749,2.45,13.188,5.447,19.492,8.938c21.223,11.747,16.249,41.438-2.323,50.693C449.24,433.776,440.342,435.365,430.907,435.943z
		"/>
	<path fill-rule="evenodd" clip-rule="evenodd" fill="none" d="M411.586,250.916c-4.663-0.005-9.336,0.193-13.985-0.066
		c-3.946-0.219-5.682,1.332-6.221,5.223c-1.826,13.185-3.929,26.332-5.807,39.51c-0.523,3.671-1.899,5.67-6.062,5.414
		c-3.517-0.216-4.661-1.39-4.104-4.95c2.698-17.262,5.224-34.551,7.809-51.831c2.929-19.583,5.879-39.162,8.75-58.753
		c0.414-2.822,0.813-5.454,4.478-5.372c15.797,0.351,31.662-1.333,47.382,0.948c18.369,2.666,27.977,16.171,25.151,34.61
		c-2.979,19.445-15.905,31.8-35.46,34.401C426.197,251.023,418.899,250.766,411.586,250.916z M414.07,242.052
		c0-0.007,0-0.014,0-0.021c4.824,0,9.655,0.149,14.473-0.03c11.068-0.411,19.923-5.182,25.923-14.477
		c8.688-13.459,7.521-37.504-16.407-38.502c-10.63-0.443-21.293-0.062-31.94-0.142c-3.202-0.024-4.802,1.209-5.28,4.533
		c-2.105,14.645-4.363,29.268-6.645,43.887c-0.566,3.624,1.049,4.826,4.404,4.774C403.753,241.993,408.912,242.052,414.07,242.052z"
		/>
	<path fill-rule="evenodd" clip-rule="evenodd" fill="none" d="M136.03,390.448c2.781-16.411,2.649-36.761,13.506-54.548
		c12.31-20.168,35.208-29.111,57.866-22.579c16.084,4.637,24.359,17.071,22.645,33.539c-0.439,4.219-3.033,4.005-5.97,4.062
		c-3.33,0.063-3.595-1.621-3.405-4.478c0.909-13.692-6.394-22.973-19.864-25.619c-19.085-3.749-35.565,4.914-45.031,23.497
		c-4.792,9.405-6.125,19.661-7.628,29.859c-1.138,7.723-2.866,15.44-2.131,23.318c1.167,12.497,5.405,23.493,18.306,27.887
		c15.896,5.414,41.459-0.306,47.746-23.557c0.652-2.41,0.494-5.411,4.303-5.805c5.544-0.574,6.644,0.477,5.387,5.892
		c-4.138,17.812-18.292,30.23-37.138,32.97c-8.715,1.267-17.281,1.55-25.54-1.93C144.374,426.759,136.012,412.399,136.03,390.448z"
		/>
	<path fill-rule="evenodd" clip-rule="evenodd" fill="none" d="M178.97,300.933c-10.153,0.003-20.308-0.128-30.457,0.062
		c-4.534,0.085-5.631-1.42-4.936-5.956c5.624-36.655,11.005-73.346,16.463-110.026c0.654-4.398,4.64-6.523,8.823-4.777
		c2.529,1.056,1.478,3.039,1.233,4.708c-2.852,19.415-5.745,38.823-8.649,58.229c-2.116,14.145-4.321,28.276-6.375,42.43
		c-1.051,7.238-0.94,7.269,6.201,7.274c16.478,0.012,32.955-0.024,49.433,0.035c4.685,0.017,6.488,2.601,4.512,6.081
		c-1.24,2.183-3.335,1.915-5.29,1.921C199.608,300.947,189.289,300.929,178.97,300.933z"/>
	<path fill-rule="evenodd" clip-rule="evenodd" fill="#4A97D2" d="M414.07,242.052c-5.158,0-10.317-0.059-15.473,0.021
		c-3.355,0.052-4.971-1.15-4.404-4.774c2.281-14.619,4.539-29.242,6.645-43.887c0.479-3.323,2.078-4.557,5.28-4.533
		c10.647,0.08,21.311-0.301,31.94,0.142c23.929,0.999,25.096,25.043,16.407,38.502c-6,9.295-14.854,14.066-25.923,14.477
		c-4.817,0.179-9.648,0.03-14.473,0.03C414.07,242.038,414.07,242.045,414.07,242.052z"/>
	<g>
		<g>
			<path fill="#FFFFFF" d="M76,229.5c3.224,0,3.224-5,0-5S72.776,229.5,76,229.5L76,229.5z"/>
		</g>
	</g>
</g>
</svg>
